<svg xmlns="http://www.w3.org/2000/svg" xmlns:xlink="http://www.w3.org/1999/xlink" id="Capa_1" width="56" height="56" x="0" y="0" version="1.1" viewBox="0 0 56 56" style="enable-background:new 0 0 56 56" xml:space="preserve"><style type="text/css">.st0{fill:#e9e9e0}.st1{fill:#d9d7ca}.st2{fill:#cc4b4c}.arr{fill:none;stroke:#e9e9e0;stroke-width:1.3333;stroke-linecap:round;stroke-linejoin:round;stroke-miterlimit:2.6667}</style><path d="M37,0H8C7.2,0,6.5,0.7,6.5,1.9V55c0,0.3,0.7,1,1.5,1H48c0.8,0,1.5-0.7,1.5-1V13c0-0.7-0.1-0.9-0.3-1.1L37.6,0.3	C37.4,0.1,37.2,0,37,0z" class="st0"/><polygon points="37.5 .2 37.5 12 49.3 12" class="st1"/><path d="M19.5,33.3L19.5,33.3c-0.3,0-0.7-0.1-1-0.3c-1-0.8-1.2-1.6-1.1-2.2c0.2-1.6,2.2-3.3,6-5.1	c1.5-3.3,2.9-7.4,3.8-10.7c-1-2.2-2-5-1.3-6.6c0.2-0.6,0.6-1,1.1-1.2c0.2-0.1,0.8-0.2,1-0.2c0.5,0,0.9,0.6,1.3,1	c0.3,0.4,1,1.2-0.4,6.8c1.3,2.8,3.3,5.6,5.1,7.6c1.3-0.2,2.4-0.4,3.4-0.4c1.6,0,2.5,0.4,2.9,1.1c0.3,0.6,0.2,1.3-0.4,2.2	c-0.6,0.8-1.3,1.2-2.2,1.2c-1.2,0-2.6-0.8-4.2-2.3c-2.8,0.6-6.1,1.7-8.8,2.8c-0.8,1.8-1.6,3.2-2.4,4.3	C21.3,32.7,20.4,33.3,19.5,33.3z M22.2,28.2c-2.1,1.2-3,2.2-3.1,2.7c0,0.1,0,0.3,0.4,0.7C19.7,31.6,20.6,31.2,22.2,28.2z M35.8,23.8	c0.8,0.6,1,0.9,1.5,0.9c0.2,0,0.9,0,1.2-0.4c0.1-0.2,0.2-0.3,0.2-0.4c-0.1-0.1-0.3-0.2-1.2-0.2C37.1,23.6,36.5,23.7,35.8,23.8z M28.3,17.2c-0.7,2.5-1.7,5.1-2.7,7.6c2.1-0.8,4.4-1.5,6.5-2C30.8,21.1,29.5,19.2,28.3,17.2z M27.7,8.7c-0.1,0-1.3,1.8,0.1,3.2	C28.8,9.8,27.8,8.7,27.7,8.7z" class="st2"/><path d="M48,56H8c-0.8,0-1.5-0.7-1.5-1.5V39h43v15.5C49.5,55.3,48.8,56,48,56z" class="st2"/><g class="arrow left"><line x1="43" x2="33.6" y1="47.5" y2="47.5" class="arr"/><line x1="41.6" x2="44.3" y1="50.2" y2="47.5" class="arr"/><line x1="41.6" x2="44.3" y1="44.8" y2="47.5" class="arr"/></g><g class="arrow right"><line x1="12.8" x2="22.2" y1="47.5" y2="47.5" class="arr"/><line x1="14.2" x2="11.5" y1="44.8" y2="47.5" class="arr"/><line x1="14.2" x2="11.5" y1="50.2" y2="47.5" class="arr"/></g></svg>