<svg xmlns="http://www.w3.org/2000/svg" xmlns:xlink="http://www.w3.org/1999/xlink" width="200" height="200" class="icon" data-spm-anchor-id="a313x.7781069.0.i9" p-id="9164" t="1687090801402" version="1.1" viewBox="0 0 1024 1024"><defs><filter id="blur-filter" width="100%" height="100%" x="0" y="0"><feGaussianBlur in="SourceGraphic" stdDeviation="5"/></filter><radialGradient id="gradient" cx="50%" cy="50%" r="50%" fx="50%" fy="50%"><stop offset="0%" style="stop-color:#85c8c8"/><stop offset="100%" style="stop-color:#0e2a33"/></radialGradient></defs><rect width="100%" height="100%" x="0" y="0" fill="url(#gradient)" filter="url(#blur-filter)" rx="512" ry="512"/><path fill="#95c6c7" d="M512 624c93.9 0 170-75.2 170-168V232c0-92.8-76.1-168-170-168s-170 75.2-170 168v224c0 92.8 76.1 168 170 168z" class="selected" data-spm-anchor-id="a313x.7781069.0.i6" p-id="9165"/><path fill="#0e2a33" d="M842 454c0-4.4-3.6-8-8-8h-60c-4.4 0-8 3.6-8 8 0 140.3-113.7 254-254 254S258 594.3 258 454c0-4.4-3.6-8-8-8h-60c-4.4 0-8 3.6-8 8 0 168.7 126.6 307.9 290 327.6V884H326.7c-13.7 0-24.7 14.3-24.7 32v36c0 4.4 2.8 8 6.2 8h407.6c3.4 0 6.2-3.6 6.2-8v-36c0-17.7-11-32-24.7-32H548V782.1c165.3-18 294-158 294-328.1z" data-spm-anchor-id="a313x.7781069.0.i7" p-id="9166"/><text x="900" y="1000" fill="#84bebf" font-family="Verdana" font-size="30">b-yp</text></svg>